<svg width="341" height="394" viewBox="0 0 341 394" fill="none" xmlns="http://www.w3.org/2000/svg">
<g clip-path="url(#clip0_20_217)">
<path fill-rule="evenodd" clip-rule="evenodd" d="M292.106 230.686L73.1908 224.829L54.3732 217.908L-24.8467 37.464L182.825 8.18927L272.169 217.303L292.106 230.686Z" fill="url(#paint0_linear_20_217)"/>
<path fill-rule="evenodd" clip-rule="evenodd" d="M-117.682 224.829L-105.57 416.103H101.204L95.4715 215.149L-117.682 224.829Z" fill="url(#paint1_linear_20_217)"/>
<path fill-rule="evenodd" clip-rule="evenodd" d="M175.826 25.4826L262.207 217.525L252.084 416.103H99.3765L88.9583 218.277L175.826 25.4826Z" fill="url(#paint2_linear_20_217)"/>
<path fill-rule="evenodd" clip-rule="evenodd" d="M147.902 416.103L143.702 293.205H217.455L211.59 416.103H147.902Z" fill="url(#paint3_linear_20_217)"/>
<path fill-rule="evenodd" clip-rule="evenodd" d="M143.702 293.205H139.399L143.702 416.103H147.902L143.702 293.205Z" fill="url(#paint4_linear_20_217)"/>
<path fill-rule="evenodd" clip-rule="evenodd" d="M206.668 416.103L211.59 300.524H206.668L203.264 416.103H206.668Z" fill="url(#paint5_linear_20_217)"/>
<path opacity="0.5" fill-rule="evenodd" clip-rule="evenodd" d="M203.264 416.103L206.668 300.524H150.657L153.295 416.103H203.264Z" fill="#B67B8A"/>
<path fill-rule="evenodd" clip-rule="evenodd" d="M154.798 310.366L156.714 354.647H197.576L200.98 310.366H154.798Z" fill="url(#paint6_linear_20_217)"/>
<path fill-rule="evenodd" clip-rule="evenodd" d="M154.798 310.366H196.441L193.317 354.647H156.714L154.798 310.366Z" fill="url(#paint7_linear_20_217)"/>
<path opacity="0.5" fill-rule="evenodd" clip-rule="evenodd" d="M159.41 312.977L163.242 343.241L178.655 344.097L177.889 335.288L187.792 334.579V348.081H196.441L198.431 312.977H159.41Z" fill="url(#paint8_linear_20_217)"/>
<path fill-rule="evenodd" clip-rule="evenodd" d="M153.708 237.872L151.232 153.707H210.308L206.58 237.872H153.708Z" fill="url(#paint9_linear_20_217)"/>
<path fill-rule="evenodd" clip-rule="evenodd" d="M151.232 153.707L147.253 155.242L151.232 237.872H153.708L151.232 153.707Z" fill="url(#paint10_linear_20_217)"/>
<path fill-rule="evenodd" clip-rule="evenodd" d="M156.227 234.892H204.031L206.241 157.278H153.708L156.227 234.892Z" fill="url(#paint11_linear_20_217)"/>
<path fill-rule="evenodd" clip-rule="evenodd" d="M153.708 157.278L154.96 195.79L201.599 196.085L202.498 157.278H153.708Z" fill="#B67B8A"/>
<path fill-rule="evenodd" clip-rule="evenodd" d="M206.241 157.278H202.498L200.965 234.892H204.03L206.241 157.278Z" fill="url(#paint12_linear_20_217)"/>
<path fill-rule="evenodd" clip-rule="evenodd" d="M154.223 172.86L203.603 171.738V173.789L154.297 175.162L154.223 172.86Z" fill="url(#paint13_linear_20_217)"/>
<path fill-rule="evenodd" clip-rule="evenodd" d="M144.026 237.872L144.881 242.033H216.35L217.455 237.872H144.026Z" fill="url(#paint14_linear_20_217)"/>
<path fill-rule="evenodd" clip-rule="evenodd" d="M144.026 237.872H149.979V242.033H144.881L144.026 237.872Z" fill="url(#paint15_linear_20_217)"/>
<path opacity="0.5" fill-rule="evenodd" clip-rule="evenodd" d="M147.003 242.033L149.979 250.887L208.451 249.352L211.339 242.033H147.003Z" fill="#B67B8A"/>
<path fill-rule="evenodd" clip-rule="evenodd" d="M257.02 205.986L244.893 416.103H252.084L262.207 217.525L257.02 205.986Z" fill="url(#paint16_linear_20_217)"/>
<path fill-rule="evenodd" clip-rule="evenodd" d="M99.3765 416.103L88.9583 215.444L97.7555 211.711L104.858 416.103H99.3765Z" fill="url(#paint17_linear_20_217)"/>
<path fill-rule="evenodd" clip-rule="evenodd" d="M99.3765 416.103L88.9582 215.444L86.1289 217.348L96.9155 416.103H99.3765Z" fill="url(#paint18_linear_20_217)"/>
<path fill-rule="evenodd" clip-rule="evenodd" d="M257.02 205.986L244.893 416.103H243.419L255.355 202.297L257.02 205.986Z" fill="url(#paint19_linear_20_217)"/>
<path fill-rule="evenodd" clip-rule="evenodd" d="M99.907 273.876L253.233 271.544L252.806 278.996L100.158 280.722L99.907 273.876Z" fill="url(#paint20_linear_20_217)"/>
<path fill-rule="evenodd" clip-rule="evenodd" d="M22.7355 332.514L19.0367 250.887L73.2646 246.814V332.514H22.7355Z" fill="url(#paint21_linear_20_217)"/>
<path d="M76.6686 246.814H73.2646V332.514H76.6686V246.814Z" fill="url(#paint22_linear_20_217)"/>
<path fill-rule="evenodd" clip-rule="evenodd" d="M26.5667 329.017L69.2859 328.751V250.887L23.3248 253.779L26.5667 329.017Z" fill="url(#paint23_linear_20_217)"/>
<path fill-rule="evenodd" clip-rule="evenodd" d="M25.712 309.2L69.2859 312.977V250.887L23.3248 253.779L25.712 309.2Z" fill="#B67B8A"/>
<path fill-rule="evenodd" clip-rule="evenodd" d="M24.2827 276.133H69.286V279.01H24.4153L24.2827 276.133Z" fill="url(#paint24_linear_20_217)"/>
<path fill-rule="evenodd" clip-rule="evenodd" d="M13.275 332.514L14.6013 336.335H72.1152L73.2646 332.514H13.275Z" fill="url(#paint25_linear_20_217)"/>
<path d="M76.6686 332.514H69.2859V336.335H76.6686V332.514Z" fill="#FF701B"/>
<path opacity="0.5" fill-rule="evenodd" clip-rule="evenodd" d="M76.6686 336.335L69.2859 341.544L19.0367 343.536V336.335H76.6686Z" fill="#B67B8A"/>
<path fill-rule="evenodd" clip-rule="evenodd" d="M261.589 229.875L153.693 80.3286L101.454 209.689L88.9583 215.444L99.3765 416.103L-162.347 426.402L-296.929 416.103L-106.115 407.501L-113.615 289.015L-54.4656 287.628L86.1289 215.577L175.826 25.4826L262.207 217.525L261.589 229.875Z" fill="#B67B8A"/>
<path fill-rule="evenodd" clip-rule="evenodd" d="M179.76 0L-24.8466 37.464L-123.444 220.786L-296.929 287.628L-294.041 293.205L-54.4656 287.628L101.454 209.689L179.76 0Z" fill="url(#paint26_linear_20_217)"/>
<path fill-rule="evenodd" clip-rule="evenodd" d="M-64.0439 280.811L95.442 205.986L179.76 0H184.52L275.322 213.718L294.376 223.869L292.106 230.686L272.169 217.303L182.825 8.18926L101.454 209.689L-54.4657 287.628L-64.0439 280.811Z" fill="url(#paint27_linear_20_217)"/>
<path fill-rule="evenodd" clip-rule="evenodd" d="M-123.444 220.786L95.442 205.986L-64.0439 280.811L-296.929 287.628L-123.444 220.786Z" fill="#FFB07C"/>
<path opacity="0.2" fill-rule="evenodd" clip-rule="evenodd" d="M-78.5735 137.358L70.3321 117.778L95.3978 74.6625L-29.7979 87.1603L-26.1729 81.0958L28.6592 74.6625L42.7908 40.1053L-30.1663 47.3502L-78.5735 137.358Z" fill="#B67B8A"/>
<path fill-rule="evenodd" clip-rule="evenodd" d="M63.4799 21.2921L57.5562 40.1053L139.399 25.4826L150.48 5.35622L63.4799 21.2921Z" fill="#B67B66"/>
<path fill-rule="evenodd" clip-rule="evenodd" d="M56.7899 42.5104L55.5669 46.1402L139.576 36.3279L142.626 29.7174L56.7899 42.5104Z" fill="#B67B66"/>
<path fill-rule="evenodd" clip-rule="evenodd" d="M-91.1579 160.76L124.575 134.112L116.883 150.417L-30.1662 160.76L-45.8304 183.794L-4.23116 180.961L-18.687 205.986L-117.623 211.711L-91.1579 160.76Z" fill="#B67B66"/>
<path opacity="0.2" fill-rule="evenodd" clip-rule="evenodd" d="M33.8462 234.892L-95.446 246.814L-115.56 258.146L-4.59958 252.923L33.8462 234.892Z" fill="#B67B8A"/>
<path opacity="0.2" fill-rule="evenodd" clip-rule="evenodd" d="M8.41222 181.905L0.410645 202.297L96.9156 200.644L109.412 172.904L8.41222 181.905Z" fill="#B67B8A"/>
<path fill-rule="evenodd" clip-rule="evenodd" d="M15.1612 156.098L-16.064 79.6941L-61.8483 185.372L20.8493 181.211L15.1612 156.098Z" fill="url(#paint28_linear_20_217)"/>
<path fill-rule="evenodd" clip-rule="evenodd" d="M23.7669 189.165L-14.8851 70.7228L65.8525 91.5427L23.7669 189.165Z" fill="url(#paint29_linear_20_217)"/>
<path fill-rule="evenodd" clip-rule="evenodd" d="M23.7669 189.165H17.1358L-21.0153 78.1448L-69.7761 187.601H-76.7462L-23.2699 70.7228H-14.8852L23.7669 189.165Z" fill="url(#paint30_linear_20_217)"/>
<path opacity="0.2" fill-rule="evenodd" clip-rule="evenodd" d="M44.7066 140.59L2.62098 125.421L-6.19104 97.3711L57.5562 110.799L44.7066 140.59Z" fill="#B67B8A"/>
<path opacity="0.2" fill-rule="evenodd" clip-rule="evenodd" d="M20.8492 88.7392L17.5631 97.3711L59.7813 105.634L63.421 97.1793L20.8492 88.7392Z" fill="#B67B8A"/>
<path fill-rule="evenodd" clip-rule="evenodd" d="M-50.0154 174.424L-22.5036 107.42H-19.1291L2.8568 172.904L-50.0154 174.424Z" fill="url(#paint31_linear_20_217)"/>
<path fill-rule="evenodd" clip-rule="evenodd" d="M2.85671 172.904L6.27544 171.694L-15.7547 107.42H-19.1292L2.85671 172.904Z" fill="url(#paint32_linear_20_217)"/>
<path fill-rule="evenodd" clip-rule="evenodd" d="M17.1357 189.165L-1.84405 182.348L-29.0464 110.223L-18.3777 85.7881L17.1357 189.165Z" fill="#B67B8A"/>
<g opacity="0.2">
<path fill-rule="evenodd" clip-rule="evenodd" d="M252.497 278.612C253.484 279.32 255.164 280.029 256.564 279.379C257.256 279.055 257.536 278.524 257.698 278.022C258.376 275.912 257.713 273.846 257.05 271.854C253.204 260.301 249.181 248.659 241.032 238.285C239.337 236.131 237.407 233.992 234.298 232.59C233.443 232.206 232.412 231.867 231.262 231.985C228.978 232.221 227.873 233.962 227.505 235.334C225.058 244.483 230.083 252.583 235.609 260.256C240.295 266.763 244.981 273.256 252.497 278.612Z" fill="#BA9D54"/>
<path fill-rule="evenodd" clip-rule="evenodd" d="M229.214 234.921C228.61 234.287 227.932 233.667 226.93 233.269C225.913 232.87 224.484 232.767 223.32 233.195C222.229 233.608 221.61 234.361 221.227 235.084C218.324 240.425 220.49 251.669 231.822 251.875C242.712 252.082 231.468 237.267 229.214 234.921Z" fill="#BA9D54"/>
<path fill-rule="evenodd" clip-rule="evenodd" d="M236.258 265.686C236.773 265.745 237.348 265.775 237.923 265.672C239.485 265.406 239.912 264.535 239.912 263.901C239.927 260.124 238.925 256.464 236.936 253.011C236.228 251.772 235.374 250.547 233.738 249.559C227.991 246.076 222.715 255.033 223.6 256.922C224.941 259.769 229.243 264.934 236.258 265.686Z" fill="#BA9D54"/>
<path fill-rule="evenodd" clip-rule="evenodd" d="M215.657 269.744C215.849 270.865 217.514 271.766 219.975 272.061C220.977 268.387 219.871 264.86 216.777 261.835C216.556 261.614 216.261 261.378 215.672 261.348C214.404 261.26 213.299 262.056 212.96 262.632C211.325 265.45 212.297 268.224 215.642 270.216L215.657 269.744Z" fill="#BA9D54"/>
<path fill-rule="evenodd" clip-rule="evenodd" d="M29.1898 125.583C30.1476 125.849 31.2822 126.085 32.6232 125.982C35.0251 125.805 36.9703 124.698 38.0018 123.695C40.6837 121.113 40.4037 118.501 39.8585 116.051C39.2691 113.381 38.3407 110.666 34.6862 108.762C33.2863 108.039 31.0612 107.42 28.4677 107.818C25.3142 108.305 23.6344 109.898 22.8386 111.226C19.6852 116.391 19.6557 122.942 29.1898 125.583Z" fill="#FFB654"/>
<path fill-rule="evenodd" clip-rule="evenodd" d="M36.086 132.297C33.6841 130.984 33.4189 128.933 35.4082 127.03C35.7029 126.749 36.086 126.439 36.6902 126.247C37.6775 125.923 38.989 125.952 39.7258 126.218C40.4478 126.484 40.7131 126.926 40.8899 127.354C41.1404 127.989 41.2288 128.638 41.1552 129.317C41.0815 129.936 40.831 130.615 39.77 131.176C38.709 131.737 36.6018 132.032 35.8208 131.589L36.086 132.297Z" fill="#FFB654"/>
<path fill-rule="evenodd" clip-rule="evenodd" d="M56.4952 99.4959C54.8448 98.5958 54.6679 97.1793 56.0236 95.866C56.2299 95.6742 56.4805 95.4676 56.9078 95.3201C57.5856 95.0988 58.4845 95.1135 58.9856 95.3053C59.4866 95.4824 59.6634 95.7923 59.7813 96.0874C59.9581 96.5153 60.0171 96.9727 59.9581 97.4449C59.9139 97.8728 59.737 98.345 59.0003 98.7286C58.2635 99.1122 56.8194 99.3188 56.2742 99.0237L56.4952 99.4959Z" fill="#FFB654"/>
<path fill-rule="evenodd" clip-rule="evenodd" d="M3.23995 88.0752C1.64848 84.0174 3.40206 81.2434 7.76386 80.9188C8.42698 80.8745 9.17848 80.8893 10.1363 81.2582C11.6836 81.8631 13.2456 83.2501 13.8645 84.3125C14.4834 85.3749 14.3655 86.1865 14.1298 86.88C13.7908 87.8981 13.2308 88.7982 12.4499 89.5507C11.7425 90.2442 10.7258 90.8197 8.85432 90.4213C6.98287 90.0229 4.10938 88.2375 3.57889 86.9095L3.23995 88.0752Z" fill="#FFB654"/>
<path fill-rule="evenodd" clip-rule="evenodd" d="M46.4454 110.961C44.9571 104.409 41.5089 97.9023 35.5999 94.7004C33.6989 93.6675 31.5328 93.0182 29.3813 93.2248C27.2299 93.4461 25.1079 94.6413 24.1501 96.5743C21.1735 102.506 29.8381 111.743 33.92 115.314C39.1807 119.932 48.5968 120.463 46.4454 110.961Z" fill="#FFB654"/>
<path fill-rule="evenodd" clip-rule="evenodd" d="M29.6908 141.475C28.2024 138.376 25.7416 135.514 22.426 134.584C21.365 134.289 20.2009 134.201 19.1546 134.555C18.1084 134.909 17.18 135.75 16.9148 136.827C16.1043 140.132 21.4829 143.762 23.9143 145.075C27.0825 146.772 31.8569 145.975 29.6908 141.475Z" fill="#FFB654"/>
<path fill-rule="evenodd" clip-rule="evenodd" d="M122.851 289.826C121.127 289.708 120.67 287.406 120.699 285.665C120.714 285.031 120.729 284.352 121.082 283.835C121.613 283.053 122.733 282.876 123.617 283.171C124.501 283.467 125.208 284.145 125.872 284.809C126.918 285.857 127.994 287.318 127.463 288.69C127.08 289.649 126.004 290.18 124.973 290.18C123.941 290.195 122.969 289.782 122.04 289.354L122.851 289.826Z" fill="#BA9D54"/>
<path fill-rule="evenodd" clip-rule="evenodd" d="M169.902 280.619C170.654 279.94 170.845 278.863 170.904 277.86C171.11 273.979 169.814 270.201 168.517 266.542C167.603 263.93 166.646 261.26 164.921 259.105C163.374 257.187 161.296 255.785 159.13 254.62C151.865 250.724 153.383 264.24 155.166 267.973C156.699 271.161 165.658 284.44 169.902 280.619Z" fill="#BA9D54"/>
<path fill-rule="evenodd" clip-rule="evenodd" d="M149.758 269.375C150.304 272.784 152.838 275.794 156.095 276.915C156.493 273.418 155.107 269.774 152.514 267.413C151.969 266.911 151.247 266.439 150.525 266.616C149.758 266.808 149.316 267.678 149.36 268.475C149.405 269.272 149.817 269.98 150.215 270.674L149.758 269.375Z" fill="#BA9D54"/>
<path fill-rule="evenodd" clip-rule="evenodd" d="M235.02 306.175C237.201 311.797 240.693 316.902 245.158 320.96C246.072 321.801 247.354 322.627 248.474 322.067C249.653 321.462 249.653 319.794 249.446 318.481C248.223 310.749 245.895 302.958 240.988 296.865C240.133 295.802 239.161 294.769 237.908 294.223C236.656 293.692 235.049 293.766 234.077 294.725C233.266 295.537 233.06 296.776 233.031 297.927C232.898 303.195 235.609 308.182 239.19 312.033L235.02 306.175Z" fill="#BA9D54"/>
<path fill-rule="evenodd" clip-rule="evenodd" d="M228.949 311.723C228.801 311.546 228.639 311.369 228.492 311.192C228.094 311.236 228.035 311.797 228.094 312.195C228.713 315.619 230.746 318.762 233.605 320.739C234.077 321.063 234.592 321.373 235.167 321.403C236.081 321.462 236.935 320.798 237.319 319.957C237.702 319.116 237.702 318.157 237.599 317.242C237.304 314.851 236.228 312.55 234.578 310.779C233.944 310.115 233.222 309.495 232.353 309.2C231.483 308.89 230.466 308.934 229.715 309.466C228.875 310.071 228.536 311.192 228.61 312.225C228.683 313.258 229.096 314.232 229.509 315.176L228.949 311.723Z" fill="#BA9D54"/>
<path fill-rule="evenodd" clip-rule="evenodd" d="M240.929 323.911C241.312 324.472 241.725 325.047 242.314 325.357C242.904 325.682 243.758 325.652 244.156 325.106C244.569 324.546 244.362 323.749 244.023 323.144C243.316 321.904 242.093 320.975 240.708 320.621C240.487 321.639 240.619 322.746 241.106 323.69L240.929 323.911Z" fill="#BA9D54"/>
<path fill-rule="evenodd" clip-rule="evenodd" d="M236.847 207.815C234.563 205.543 231.984 203.463 228.949 202.386C225.913 201.308 222.347 201.382 219.68 203.182C208.864 210.486 224.322 241.148 234.15 245.53C242.285 249.16 250.448 244.276 250.669 235.689C250.935 225.832 243.493 214.426 236.847 207.815Z" fill="#BA9D54"/>
<path fill-rule="evenodd" clip-rule="evenodd" d="M234.15 252.244C235.477 254.59 237.599 256.479 240.074 257.512C241.047 257.91 242.373 258.087 242.948 257.202C243.478 256.39 242.918 255.313 242.299 254.546C241.061 253.026 239.544 251.728 237.849 250.739C237.274 250.414 236.597 250.105 235.978 250.355C235.359 250.606 235.182 251.669 235.816 251.86L234.15 252.244Z" fill="#BA9D54"/>
<path fill-rule="evenodd" clip-rule="evenodd" d="M210.765 223.25C209.365 222.586 207.685 223.899 207.361 225.404C207.022 226.909 207.611 228.458 208.186 229.89C209.409 232.944 210.824 236.22 213.697 237.813C216.011 239.082 219.562 239.805 219.518 242.446C217.44 240.868 214.817 240.012 212.209 240.086C211.664 242.638 212.857 245.457 215.053 246.873C212.017 245.575 209.527 243.229 206.58 241.723C203.633 240.204 199.713 239.702 197.252 241.915C195.484 243.509 194.968 246.135 195.381 248.467C195.793 250.798 197.016 252.908 198.313 254.9C200.803 258.736 203.913 262.558 208.274 263.916C212.636 265.273 218.354 262.971 219.032 258.441C220.535 261.85 224.499 263.739 228.212 263.488C231.925 263.252 235.329 261.201 237.952 258.545C239.986 256.494 241.651 254 242.373 251.211C243.655 246.194 241.739 240.927 239.264 236.382C235.005 228.547 228.58 220.741 220.991 215.916C218.324 214.219 215.097 212.463 211.796 214.101C208.319 215.813 207.184 220.815 210.765 223.25Z" fill="#BA9D54"/>
<path fill-rule="evenodd" clip-rule="evenodd" d="M194.658 272.134C196.353 272.37 197.915 270.865 198.298 269.183C198.681 267.516 198.165 265.775 197.517 264.181C197.09 263.104 196.574 262.042 195.764 261.215C192.698 258.146 189.501 261.761 189.56 265.096C189.574 267.545 192.109 271.766 194.658 272.134Z" fill="#BA9D54"/>
<path fill-rule="evenodd" clip-rule="evenodd" d="M200.833 260.404C201.054 262.499 201.894 264.521 203.235 266.129C204.988 268.239 207.876 269.656 210.499 268.873C211.192 268.667 211.855 268.313 212.327 267.767C213.181 266.793 213.344 265.391 213.255 264.093C212.96 260.183 210.544 256.494 207.081 254.679C206.58 254.413 206.035 254.177 205.46 254.133C204.281 254.03 203.161 254.753 202.41 255.653C200.45 258.013 200.641 261.894 202.822 264.048L200.833 260.404Z" fill="#BA9D54"/>
<path fill-rule="evenodd" clip-rule="evenodd" d="M217.16 261.26C217.691 262.115 218.265 263.016 219.149 263.517C220.034 264.019 221.316 263.96 221.89 263.119C222.303 262.514 222.229 261.717 222.067 261.024C221.522 258.648 219.901 256.405 217.573 255.682C216.983 255.505 216.291 255.431 215.76 255.756C213.491 257.113 216.364 260.005 217.16 261.26Z" fill="#BA9D54"/>
<path fill-rule="evenodd" clip-rule="evenodd" d="M209.438 282.847C210.367 284.898 212.415 286.432 214.655 286.58C216.895 286.728 219.194 285.4 220.063 283.334C220.461 282.389 220.549 281.327 220.49 280.309C220.313 277.387 218.81 274.628 216.629 272.68C215.436 271.603 213.962 270.733 212.356 270.644C209.969 270.511 207.626 272.326 207.169 274.672C207.051 275.248 207.051 275.853 207.081 276.443C207.272 279.778 208.908 283.009 211.472 285.134L209.438 282.847Z" fill="#BA9D54"/>
<path fill-rule="evenodd" clip-rule="evenodd" d="M225.736 270.792C227.121 269.759 229.081 269.951 230.702 270.585C233.856 271.825 236.243 274.495 237.996 277.387C239.102 279.217 240.015 281.165 240.693 283.201C241.12 284.47 241.459 285.798 241.342 287.141C240.678 294.445 230.82 289.015 227.917 286.167C224.734 283.024 221.33 274.038 225.736 270.792Z" fill="#BA9D54"/>
<path fill-rule="evenodd" clip-rule="evenodd" d="M171.626 382.298C173.468 387.064 176.445 391.403 180.232 394.841C181.013 395.549 182.104 396.257 183.032 395.785C184.034 395.283 184.034 393.852 183.857 392.745C182.826 386.179 180.836 379.569 176.681 374.404C175.959 373.504 175.133 372.619 174.058 372.162C172.997 371.704 171.626 371.763 170.816 372.589C170.123 373.283 169.946 374.331 169.932 375.304C169.829 379.775 172.127 384.01 175.163 387.271L171.626 382.298Z" fill="#BA9D54"/>
<path fill-rule="evenodd" clip-rule="evenodd" d="M186.686 370.583C187.261 371.866 188.558 372.84 189.972 372.929C191.387 373.017 192.831 372.191 193.376 370.878C193.627 370.288 193.686 369.624 193.642 368.974C193.524 367.145 192.581 365.403 191.21 364.179C190.459 363.5 189.53 362.954 188.528 362.895C187.025 362.807 185.552 363.957 185.272 365.433C185.198 365.802 185.198 366.171 185.213 366.554C185.331 368.65 186.362 370.686 187.968 372.014L186.686 370.583Z" fill="#BA9D54"/>
<path fill-rule="evenodd" clip-rule="evenodd" d="M179.451 374.478C180.63 373.607 182.295 373.77 183.665 374.301C186.347 375.349 188.366 377.621 189.855 380.085C190.798 381.634 191.564 383.287 192.153 385.013C192.522 386.091 192.802 387.227 192.699 388.363C192.139 394.56 183.769 389.957 181.308 387.537C178.596 384.866 175.708 377.237 179.451 374.478Z" fill="#BA9D54"/>
<path fill-rule="evenodd" clip-rule="evenodd" d="M239.868 273.728C240.207 274.79 240.87 275.75 241.739 276.443C242.005 276.65 242.314 276.856 242.668 276.841C243.154 276.841 243.567 276.414 243.699 275.941C243.847 275.469 243.773 274.968 243.685 274.481C243.537 273.595 243.331 272.68 242.756 271.987C242.181 271.308 241.106 270.954 240.354 271.456C239.367 272.12 239.588 273.625 240.089 274.687L239.868 273.728Z" fill="#BA9D54"/>
<path fill-rule="evenodd" clip-rule="evenodd" d="M182.325 292.541C183.459 292.172 184.329 290.918 184.049 289.752C185.095 291.803 187.85 292.645 190.017 291.862C192.183 291.08 193.701 288.956 194.157 286.683C194.599 284.411 194.098 282.05 193.155 279.94C191.372 275.986 187.762 272.651 183.459 272.149C182 271.987 180.188 272.371 179.731 273.772C179.569 274.244 179.613 274.761 179.657 275.263C179.937 278.007 180.748 280.589 181.838 283.112C173.792 276.251 174.824 294.961 182.325 292.541Z" fill="#BA9D54"/>
<path fill-rule="evenodd" clip-rule="evenodd" d="M195.38 293.043C195.469 294.666 196.839 296.142 198.46 296.319C199.521 296.437 200.715 295.935 201.054 294.917C201.26 294.282 201.098 293.574 200.818 292.969C200.391 292.04 199.639 291.213 198.667 290.889C197.694 290.564 196.5 290.83 195.896 291.671C195.351 292.438 195.395 293.471 195.454 294.4L195.38 293.043Z" fill="#BA9D54"/>
</g>
</g>
<defs>
<linearGradient id="paint0_linear_20_217" x1="133.628" y1="230.694" x2="133.628" y2="8.18307" gradientUnits="userSpaceOnUse">
<stop offset="0.0112" stop-color="#882A30"/>
<stop offset="1" stop-color="#9F2A3B"/>
</linearGradient>
<linearGradient id="paint1_linear_20_217" x1="-8.23342" y1="416.101" x2="-8.23342" y2="215.145" gradientUnits="userSpaceOnUse">
<stop offset="0.0112" stop-color="#FF9277"/>
<stop offset="1" stop-color="#FFB07C"/>
</linearGradient>
<linearGradient id="paint2_linear_20_217" x1="175.588" y1="416.101" x2="175.588" y2="25.4832" gradientUnits="userSpaceOnUse">
<stop offset="0.0112" stop-color="#FFC49D"/>
<stop offset="1" stop-color="#FFECB3"/>
</linearGradient>
<linearGradient id="paint3_linear_20_217" x1="180.578" y1="416.101" x2="180.578" y2="293.201" gradientUnits="userSpaceOnUse">
<stop stop-color="#FF7F49"/>
<stop offset="0.9888" stop-color="#FFA236"/>
</linearGradient>
<linearGradient id="paint4_linear_20_217" x1="143.644" y1="416.101" x2="143.644" y2="293.201" gradientUnits="userSpaceOnUse">
<stop offset="0.0112" stop-color="#C83E34"/>
<stop offset="1" stop-color="#9F2A3B"/>
</linearGradient>
<linearGradient id="paint5_linear_20_217" x1="207.421" y1="416.101" x2="207.421" y2="300.517" gradientUnits="userSpaceOnUse">
<stop offset="0.0112" stop-color="#C83E34"/>
<stop offset="1" stop-color="#9F2A3B"/>
</linearGradient>
<linearGradient id="paint6_linear_20_217" x1="177.89" y1="354.651" x2="177.89" y2="310.37" gradientUnits="userSpaceOnUse">
<stop offset="0.0112" stop-color="#C83E34"/>
<stop offset="1" stop-color="#9F2A3B"/>
</linearGradient>
<linearGradient id="paint7_linear_20_217" x1="175.619" y1="354.651" x2="175.619" y2="310.37" gradientUnits="userSpaceOnUse">
<stop stop-color="#7A3440"/>
<stop offset="0.3257" stop-color="#742D3E"/>
<stop offset="0.7899" stop-color="#631B39"/>
<stop offset="0.9944" stop-color="#5A1036"/>
</linearGradient>
<linearGradient id="paint8_linear_20_217" x1="178.918" y1="348.077" x2="178.918" y2="312.976" gradientUnits="userSpaceOnUse">
<stop offset="0.00558659" stop-color="#511531"/>
<stop offset="0.9447" stop-color="#AD7625"/>
<stop offset="1" stop-color="#B37C24"/>
</linearGradient>
<linearGradient id="paint9_linear_20_217" x1="180.776" y1="237.874" x2="180.776" y2="153.703" gradientUnits="userSpaceOnUse">
<stop stop-color="#FF7F49"/>
<stop offset="0.9888" stop-color="#FFA236"/>
</linearGradient>
<linearGradient id="paint10_linear_20_217" x1="150.485" y1="237.874" x2="150.485" y2="153.703" gradientUnits="userSpaceOnUse">
<stop offset="0.0112" stop-color="#C83E34"/>
<stop offset="1" stop-color="#9F2A3B"/>
</linearGradient>
<linearGradient id="paint11_linear_20_217" x1="179.975" y1="234.886" x2="179.975" y2="157.277" gradientUnits="userSpaceOnUse">
<stop stop-color="#7A3440"/>
<stop offset="0.3257" stop-color="#742D3E"/>
<stop offset="0.7899" stop-color="#631B39"/>
<stop offset="0.9944" stop-color="#5A1036"/>
</linearGradient>
<linearGradient id="paint12_linear_20_217" x1="203.601" y1="234.886" x2="203.601" y2="157.277" gradientUnits="userSpaceOnUse">
<stop offset="0.0112" stop-color="#C83E34"/>
<stop offset="1" stop-color="#9F2A3B"/>
</linearGradient>
<linearGradient id="paint13_linear_20_217" x1="178.909" y1="175.162" x2="178.909" y2="171.744" gradientUnits="userSpaceOnUse">
<stop stop-color="#FF7F49"/>
<stop offset="0.9888" stop-color="#FFA236"/>
</linearGradient>
<linearGradient id="paint14_linear_20_217" x1="144.03" y1="239.954" x2="217.451" y2="239.954" gradientUnits="userSpaceOnUse">
<stop stop-color="#FF7F49"/>
<stop offset="0.9888" stop-color="#FFA236"/>
</linearGradient>
<linearGradient id="paint15_linear_20_217" x1="147.002" y1="242.034" x2="147.002" y2="237.874" gradientUnits="userSpaceOnUse">
<stop offset="0.0112" stop-color="#C83E34"/>
<stop offset="1" stop-color="#9F2A3B"/>
</linearGradient>
<linearGradient id="paint16_linear_20_217" x1="253.551" y1="416.101" x2="253.551" y2="205.988" gradientUnits="userSpaceOnUse">
<stop stop-color="#FF7F49"/>
<stop offset="0.9888" stop-color="#FFA236"/>
</linearGradient>
<linearGradient id="paint17_linear_20_217" x1="96.911" y1="416.101" x2="96.911" y2="211.705" gradientUnits="userSpaceOnUse">
<stop stop-color="#FF7F49"/>
<stop offset="0.9888" stop-color="#FFA236"/>
</linearGradient>
<linearGradient id="paint18_linear_20_217" x1="92.75" y1="416.101" x2="92.75" y2="215.441" gradientUnits="userSpaceOnUse">
<stop offset="0.0112" stop-color="#C83E34"/>
<stop offset="1" stop-color="#9F2A3B"/>
</linearGradient>
<linearGradient id="paint19_linear_20_217" x1="250.223" y1="416.101" x2="250.223" y2="202.294" gradientUnits="userSpaceOnUse">
<stop offset="0.0112" stop-color="#C83E34"/>
<stop offset="1" stop-color="#9F2A3B"/>
</linearGradient>
<linearGradient id="paint20_linear_20_217" x1="99.913" y1="276.134" x2="253.237" y2="276.134" gradientUnits="userSpaceOnUse">
<stop stop-color="#FF7F49"/>
<stop offset="0.9888" stop-color="#FFA236"/>
</linearGradient>
<linearGradient id="paint21_linear_20_217" x1="46.1461" y1="332.511" x2="46.1461" y2="246.81" gradientUnits="userSpaceOnUse">
<stop offset="0.0112" stop-color="#C83E34"/>
<stop offset="1" stop-color="#9F2A3B"/>
</linearGradient>
<linearGradient id="paint22_linear_20_217" x1="74.9604" y1="332.511" x2="74.9604" y2="246.81" gradientUnits="userSpaceOnUse">
<stop stop-color="#FF7229"/>
<stop offset="0.9888" stop-color="#D15936"/>
</linearGradient>
<linearGradient id="paint23_linear_20_217" x1="46.3032" y1="329.024" x2="46.3032" y2="250.884" gradientUnits="userSpaceOnUse">
<stop stop-color="#7A3440"/>
<stop offset="0.3257" stop-color="#742D3E"/>
<stop offset="0.7899" stop-color="#631B39"/>
<stop offset="0.9944" stop-color="#5A1036"/>
</linearGradient>
<linearGradient id="paint24_linear_20_217" x1="24.286" y1="277.573" x2="69.2836" y2="277.573" gradientUnits="userSpaceOnUse">
<stop offset="0.0112" stop-color="#C83E34"/>
<stop offset="1" stop-color="#9F2A3B"/>
</linearGradient>
<linearGradient id="paint25_linear_20_217" x1="13.2716" y1="334.42" x2="73.2574" y2="334.42" gradientUnits="userSpaceOnUse">
<stop offset="0.0112" stop-color="#C83E34"/>
<stop offset="1" stop-color="#9F2A3B"/>
</linearGradient>
<linearGradient id="paint26_linear_20_217" x1="-58.5851" y1="293.201" x2="-58.5851" y2="0" gradientUnits="userSpaceOnUse">
<stop offset="0.0112" stop-color="#D7432A"/>
<stop offset="1" stop-color="#810331"/>
</linearGradient>
<linearGradient id="paint27_linear_20_217" x1="115.164" y1="287.633" x2="115.164" y2="0" gradientUnits="userSpaceOnUse">
<stop stop-color="#FF7F49"/>
<stop offset="0.9888" stop-color="#FFA236"/>
</linearGradient>
<linearGradient id="paint28_linear_20_217" x1="-20.5013" y1="185.367" x2="-20.5013" y2="79.6879" gradientUnits="userSpaceOnUse">
<stop offset="0.0112" stop-color="#FF9277"/>
<stop offset="1" stop-color="#FF847C"/>
</linearGradient>
<linearGradient id="paint29_linear_20_217" x1="25.4802" y1="189.168" x2="25.4802" y2="70.7251" gradientUnits="userSpaceOnUse">
<stop offset="0.0112" stop-color="#FB4F34"/>
<stop offset="1" stop-color="#E7253B"/>
</linearGradient>
<linearGradient id="paint30_linear_20_217" x1="-26.4926" y1="189.168" x2="-26.4926" y2="70.7251" gradientUnits="userSpaceOnUse">
<stop offset="0.0112" stop-color="#952A2A"/>
<stop offset="1" stop-color="#63061A"/>
</linearGradient>
<linearGradient id="paint31_linear_20_217" x1="-23.5818" y1="174.422" x2="-23.5818" y2="107.415" gradientUnits="userSpaceOnUse">
<stop offset="0.0112" stop-color="#C83E34"/>
<stop offset="1" stop-color="#9F2A3B"/>
</linearGradient>
<linearGradient id="paint32_linear_20_217" x1="-6.427" y1="172.907" x2="-6.427" y2="107.415" gradientUnits="userSpaceOnUse">
<stop stop-color="#7A3440"/>
<stop offset="0.3257" stop-color="#742D3E"/>
<stop offset="0.7899" stop-color="#631B39"/>
<stop offset="0.9944" stop-color="#5A1036"/>
</linearGradient>
<clipPath id="clip0_20_217">
<rect width="709" height="508" fill="white" transform="translate(-368)"/>
</clipPath>
</defs>
</svg>
