{
  "accessors": [
    {
      "bufferView": 0,
      "componentType": 5125,
      "count": 1050,
      "type": "SCALAR"
    },
    {
      "bufferView": 1,
      "componentType": 5126,
      "count": 303,
      "max": [
        0.023822817649572087,
        0.019740687459027947,
        0.009999999747378757
      ],
      "min": [
        -0.007449338775258996,
        -0.02281372738335835,
        -0.00999999974737876
      ],
      "type": "VEC3"
    },
    {
      "bufferView": 2,
      "componentType": 5126,
      "count": 303,
      "max": [
        0.7071064451701998,
        0.7071071172027357,
        1.0
      ],
      "min": [
        -0.9999999999998704,
        -0.9999998092018806,
        -1.0
      ],
      "type": "VEC3"
    },
    {
      "bufferView": 3,
      "componentType": 5126,
      "count": 303,
      "max": [
        0.8609734850261266,
        1.0
      ],
      "min": [
        0.0,
        0.0
      ],
      "type": "VEC2"
    },
    {
      "bufferView": 4,
      "componentType": 5125,
      "count": 1194,
      "type": "SCALAR"
    },
    {
      "bufferView": 5,
      "componentType": 5126,
      "count": 343,
      "max": [
        0.007449348561645308,
        0.022813727383358337,
        0.00999999974737876
      ],
      "min": [
        -0.02382281764957206,
        -0.019786240585358203,
        -0.00999999974737876
      ],
      "type": "VEC3"
    },
    {
      "bufferView": 6,
      "componentType": 5126,
      "count": 343,
      "max": [
        0.9999999999999913,
        0.9999995318019016,
        1.0
      ],
      "min": [
        -0.7071068729602396,
        -0.7071068729602397,
        -1.0
      ],
      "type": "VEC3"
    },
    {
      "bufferView": 7,
      "componentType": 5126,
      "count": 343,
      "max": [
        0.8616424593570434,
        1.0
      ],
      "min": [
        0.0,
        0.0
      ],
      "type": "VEC2"
    }
  ],
  "asset": {
    "generator": "Adobe Illustrator",
    "version": "2.0"
  },
  "bufferViews": [
    {
      "buffer": 0,
      "byteLength": 4200,
      "target": 34963
    },
    {
      "buffer": 0,
      "byteLength": 3636,
      "byteOffset": 4200,
      "target": 34962
    },
    {
      "buffer": 0,
      "byteLength": 3636,
      "byteOffset": 7836,
      "target": 34962
    },
    {
      "buffer": 0,
      "byteLength": 2424,
      "byteOffset": 11472,
      "target": 34962
    },
    {
      "buffer": 0,
      "byteLength": 4776,
      "byteOffset": 13896,
      "target": 34963
    },
    {
      "buffer": 0,
      "byteLength": 4116,
      "byteOffset": 18672,
      "target": 34962
    },
    {
      "buffer": 0,
      "byteLength": 4116,
      "byteOffset": 22788,
      "target": 34962
    },
    {
      "buffer": 0,
      "byteLength": 2744,
      "byteOffset": 26904,
      "target": 34962
    }
  ],
  "buffers": [
    {
      "byteLength": 29648,
      "uri": "data:application/octet-stream;base64,"
    }
  ],
  "materials": [
    {
      "doubleSided": true,
      "pbrMetallicRoughness": {
        "baseColorFactor": [
          0.1054687574505806,
          0.53515625,
          0.2968750298023224,
          1.0
        ],
        "metallicFactor": 0.0,
        "roughnessFactor": 0.4000000059604645
      }
    },
    {
      "doubleSided": true,
      "pbrMetallicRoughness": {
        "baseColorFactor": [
          0.1210937574505806,
          0.32421875,
          0.62890625,
          1.0
        ],
        "metallicFactor": 0.0,
        "roughnessFactor": 0.4000000059604645
      }
    }
  ],
  "meshes": [
    {
      "primitives": [
        {
          "attributes": {
            "NORMAL": 2,
            "POSITION": 1,
            "TEXCOORD_0": 3
          },
          "indices": 0,
          "material": 0,
          "mode": 4
        }
      ]
    },
    {
      "primitives": [
        {
          "attributes": {
            "NORMAL": 6,
            "POSITION": 5,
            "TEXCOORD_0": 7
          },
          "indices": 4,
          "material": 1,
          "mode": 4
        }
      ]
    }
  ],
  "nodes": [
    {
      "mesh": 0
    },
    {
      "mesh": 1
    }
  ],
  "scenes": [
    {
      "nodes": [
        0,
        1
      ]
    }
  ]
}
